<svg xmlns="http://www.w3.org/2000/svg" x="0px" y="0px" width="100" height="100" viewBox="0,0,256,256">
	<g fill="#FFD700" fill-rule="nonzero" stroke="none" stroke-width="1" stroke-linecap="butt" stroke-linejoin="miter" stroke-miterlimit="10" stroke-dasharray="" stroke-dashoffset="0" font-family="none" font-weight="none" font-size="none" text-anchor="none" style="mix-blend-mode: normal"><g transform="scale(10.66667,10.66667)"><path d="M21.88477,7.79492l-2.45117,0.06836l0.6543,4.52539h3.91211l-1.41992,-1.00195h-1.65625l-0.10547,-0.98828l1.41406,-0.04297l0.05469,-0.48633l-0.16797,-0.37695l-1.47461,0.0293l-0.13867,-0.91992l1.46094,-0.07031l0.07031,-0.41797zM2.09961,7.86328l-0.75195,3.56445l-1.06641,0.96094h1.91797l0.53906,-3.49414l0.59375,3.49414h0.80859l1.66211,-3.49414l-0.32812,3.49414h1.69727l-0.64453,-0.6543l0.36133,-3.87109h-1.36523l-1.44727,2.78516l-0.58594,-2.78516zM14.83008,7.9043l0.39258,0.69141l0.16406,3.06836l-0.34961,0.72461h1.83008l-0.51953,-0.65625l-0.14258,-3.13672l0.28906,-0.69141zM16.7793,7.9043l0.34375,4.48438h2.73633l-0.10742,-1.04297h-1.71484l-0.29687,-3.44141zM12.16211,7.94727c-0.26,0 -0.4707,0.2117 -0.4707,0.4707v3.9707h2.13672c0.908,-0.016 1.16211,-0.83984 1.16211,-0.83984c0.117,-0.309 0.02344,-0.76953 0.02344,-0.76953c-0.125,-0.654 -1.02539,-0.86914 -1.02539,-0.86914c0.703,-0.187 0.69922,-0.73047 0.69922,-0.73047c0.017,-0.107 0.01405,-0.2208 -0.00195,-0.3418c-0.059,-0.617 -0.75695,-0.88563 -1.00195,-0.89062zM9.33008,7.95508c-1.21,-0.102 -2.27591,0.80534 -2.37891,2.02734c-0.104,1.222 0.79486,2.29644 2.00586,2.39844c1.21,0.102 2.27591,-0.80534 2.37891,-2.02734c0.103,-1.222 -0.79486,-2.29644 -2.00586,-2.39844zM13.34766,8.55078c0,0 0.35175,0.20406 0.34375,0.53906c0,0 0.02637,0.49395 -0.39062,0.50195h-0.62109v-1.03125zM9.16211,8.68359c0.0776,-0.00769 0.15745,-0.00506 0.23633,0.00781c0.631,0.102 1.03339,0.85088 0.90039,1.67187c-0.133,0.821 -0.75377,1.40278 -1.38477,1.30078c-0.631,-0.102 -1.03339,-0.84987 -0.90039,-1.67187c0.11637,-0.71837 0.60523,-1.25478 1.14844,-1.30859zM12.67969,10.46289h0.80273c0,0 0.43945,0.20131 0.43945,0.57031c0,0 -0.01145,0.46156 -0.43945,0.60156h-0.80273zM2.08008,12.75195l-0.72852,4.24805l2.51563,-0.17773c0,0 0.05661,-0.30216 0.09961,-0.53516c0.012,-0.066 -0.00583,-0.13355 -0.04883,-0.18555c-0.044,-0.052 -0.10778,-0.08203 -0.17578,-0.08203h-1.23047l0.48828,-3.25zM8.86523,12.88867c-0.32725,-0.00287 -0.61133,0.01953 -0.61133,0.01953c-1.233,0.088 -1.57975,1.34808 -1.59375,1.95508c0.053,1.424 1.0293,1.58594 1.0293,1.58594c1.072,0.307 2.04688,-0.30469 2.04688,-0.30469l0.06641,-1.82226l-1.44922,0.00391l-0.06055,0.66992l0.67773,0.03516l-0.06836,0.62695c-0.641,0.25 -1.07227,-0.10351 -1.07227,-0.10351c-0.633,-0.541 -0.31389,-1.60916 0.41211,-1.91016c0.633,-0.262 1.42578,0.16211 1.42578,0.16211l0.06836,-0.78125c-0.174,-0.1045 -0.54384,-0.13384 -0.87109,-0.13672zM20.7832,12.88867c-0.226,0.02 -0.34272,0.05023 -0.51172,0.11523c-0.745,0.287 -0.49219,1.08008 -0.49219,1.08008c0.06,0.445 0.77539,0.89063 0.77539,0.89063c0.22,0.141 0.96484,0.47461 0.96484,0.47461c0.487,0.326 0.05909,0.68863 -0.25391,0.64063c-0.91,-0.14 -1.19727,-0.37695 -1.19727,-0.37695l0.0332,0.87695c0.963,0.485 1.87305,0.251 1.87305,0.25c0.722,-0.225 0.72461,-0.84961 0.72461,-0.84961c0.043,-0.848 -0.71094,-1.22461 -0.71094,-1.22461c-0.487,-0.27 -0.94252,-0.52342 -1.10352,-0.60742c-0.505,-0.264 -0.03083,-0.56064 0.32617,-0.55664c0.571,0.006 0.95117,0.08984 0.95117,0.08984l0.15234,-0.77734zM4.6543,12.91406l-0.51367,3.53711h2.22656l0.05664,-0.69531l-1.31055,0.01367l0.09961,-0.75195l1.1543,-0.04102l0.07031,-0.66992l-1.11523,-0.01367l0.07813,-0.68945h1.18945l0.07031,-0.68945zM10.34961,12.91406l-0.125,3.42578v0.05664h2.21289v-0.69727l-1.33594,-0.02734v-0.69531l1.14063,-0.01367l-0.01367,-0.69727h-1.08594v-0.73828h1.18359v-0.61328zM12.78516,12.91406v3.48242h0.82227l-0.07031,-2.41016l1.71484,2.41016h0.84766l-0.16992,-3.48242h-0.78516l0.10742,2.22852l-1.61719,-2.22852zM16.40625,12.91406l0.30664,3.48242h1.87891c0.877,-0.209 1.08594,-0.91992 1.08594,-0.91992c0.292,-0.849 -0.13867,-1.61523 -0.13867,-1.61523c-0.474,-0.891 -1.49023,-0.94727 -1.49023,-0.94727zM17.32422,13.60352h0.69727c0,0 0.79427,0.31309 0.82227,1.12109c0,0 0.10941,0.68324 -0.55859,0.99024h-0.79297z"></path></g></g>
</svg>